<?xml version="1.0" encoding="utf-8"?>
<!-- Generator: Adobe Illustrator 24.2.3, SVG Export Plug-In . SVG Version: 6.00 Build 0)  -->
<svg version="1.1" id="Layer_1" xmlns="http://www.w3.org/2000/svg" xmlns:xlink="http://www.w3.org/1999/xlink" x="0px" y="0px"
	 viewBox="0 0 2610 400" style="enable-background:new 0 0 2610 400;" xml:space="preserve">
<style type="text/css">
	.st0{fill-rule:evenodd;clip-rule:evenodd;fill:#282828;}
	.st1{fill:#A0C8FF;}
	.st2{fill:#005AD6;}
	.st3{fill:#003F96;}
</style>
<g>
	<path class="st0" d="M568.6,356.3V225.6h99.8v-23.7v-26.4h-99.8V89.3H699V39.2H512.4v317.1h26.1H568.6z M750.4,105.1
		c17.9,0,31.9-14,31.9-32.1c0-18.5-14-32.1-31.9-32.1c-17.4,0-32.3,13.6-32.3,32.1C718.1,91.1,733,105.1,750.4,105.1z M872.6,244
		v112.3h-53.4V141.3h53.4v34.1c11-26.7,44.6-38.7,66.7-38.7c55.2,0,86.1,36.4,86.1,99v120.6H972V240.7c0-34.1-20.7-51.5-44.6-51.5
		C903,189.2,872.6,202.5,872.6,244z M1323.4,361.3c21.6,0,55.7-12,66.7-38.7v33.6h53.4V141.3h-53.4v112.3
		c0,41.9-30.4,55.2-54.8,55.2c-23.9,0-44.6-17.5-44.6-52V141.3h-53.4v120.6C1237.4,324.5,1268.2,361.3,1323.4,361.3z M1662,327.3
		c-14.7,23-45.1,33.6-71.3,33.6c-56.6,0-105.9-43.7-105.9-112.3c0-69,48.8-111.8,105.4-111.8c27.2,0,57.1,10.6,71.8,33.1v-28.5h53.4
		v214.9H1662V327.3z M1595.1,310.7c-33.1,0-60.3-26.7-60.3-62.6c0-35.9,27.2-61.7,60.3-61.7c30.8,0,62.1,23.9,62.1,61.7
		C1657.3,285.8,1627.8,310.7,1595.1,310.7z M1812.4,41.9l0,315.4H1759l0-301.1L1812.4,41.9z M777.5,356.3v-215h-53.4v215H777.5z
		 M1195.3,358.1c-7.8,1.8-19.3,2.8-27.6,2.8c-49.7,0-82.8-30.4-82.8-87.4V190H1042v-48.8h42.8V87.3l51.5-13.8v67.7h58.9V190h-58.9
		v82.4c0,28.5,17.5,40,42.3,40c5.5,0,11.5-0.5,16.6-1.8V358.1z"/>
	<g>
		<circle class="st1" cx="250.5" cy="142.2" r="134"/>
		<path class="st2" d="M250.5,142.2H0.5v250C138.6,392.2,250.5,280.3,250.5,142.2z"/>
		<path class="st3" d="M214.6,271.3c22.8-37.7,35.9-81.9,35.9-129.1h-134C116.5,203.8,158.1,255.6,214.6,271.3z"/>
	</g>
	<g>
		<path class="st2" d="M2084.6,262.1h-169.7c6.3,32.6,29,52.9,64.7,52.9c27.2,0,48.4-12.7,52.9-31.7h50.7
			c-8.1,46.6-50.2,77.4-104.5,77.4c-64.7,0-114.9-50.2-114.9-116.3c0-64.3,50.2-114,114-114c59.7,0,108.2,45.7,108.2,110.4
			C2085.9,246.8,2085.5,258.1,2084.6,262.1z M2031.2,219.2c-4.5-25.3-25.8-43-56.1-43c-29.9,0-51.6,15.8-58.8,43H2031.2z"/>
		<path class="st2" d="M2347,39.5v316.8h-50.7v-38.9c-15.8,27.6-43,43.4-78.3,43.4c-58.8,0-105.9-51.6-105.9-115.4
			c0-63.8,47.1-114.9,105.9-114.9c35.3,0,62.4,15.8,78.3,43.4V39.5H2347z M2296.4,245.4c0-38-29-67-67.4-67c-37.6,0-67,29.9-67,67
			c0,37.6,29.4,67.4,67,67.4C2267.4,312.8,2296.4,283.9,2296.4,245.4z"/>
		<path class="st2" d="M2609.5,135v221.3h-50.7v-34.8c-14,24.9-37.1,39.4-66.5,39.4c-57,0-91.9-38-91.9-100V135h50.2v119.9
			c0,34.8,21.3,57.5,53.9,57.5s54.3-22.6,54.3-57.5V135H2609.5z"/>
	</g>
</g>
</svg>
