<?xml version="1.0" encoding="iso-8859-1"?>
<!-- Generator: Adobe Illustrator 19.0.0, SVG Export Plug-In . SVG Version: 6.00 Build 0)  -->
<svg version="1.1" id="Capa_1" xmlns="http://www.w3.org/2000/svg" xmlns:xlink="http://www.w3.org/1999/xlink" x="0px" y="0px"
	 viewBox="0 0 512.303 512.303" style="enable-background:new 0 0 512.303 512.303;" xml:space="preserve">
<path style="fill:#4CAF50;" d="M256.014,0.134C114.629,0.164,0.038,114.804,0.068,256.189c0.01,48.957,14.059,96.884,40.479,138.1
	L0.718,497.628c-2.121,5.496,0.615,11.671,6.111,13.792c1.229,0.474,2.534,0.717,3.851,0.715c1.222,0.006,2.435-0.203,3.584-0.619
	l106.667-38.08c120.012,74.745,277.894,38.048,352.638-81.965s38.048-277.894-81.965-352.638
	C350.922,13.495,303.943,0.087,256.014,0.134z"/>
<path style="fill:#FAFAFA;" d="M378.062,299.889c0,0-26.133-12.8-42.496-21.333c-18.517-9.536-40.277,8.32-50.517,18.475
	c-15.937-6.122-30.493-15.362-42.816-27.179c-11.819-12.321-21.059-26.877-27.179-42.816c10.155-10.261,27.968-32,18.475-50.517
	c-8.427-16.384-21.333-42.496-21.333-42.517c-1.811-3.594-5.49-5.863-9.515-5.867h-21.333c-31.068,5.366-53.657,32.474-53.333,64
	c0,33.493,40.085,97.835,67.115,124.885s91.371,67.115,124.885,67.115c31.526,0.324,58.634-22.266,64-53.333v-21.333
	C384.018,305.401,381.71,301.686,378.062,299.889z"/>
<g>
</g>
<g>
</g>
<g>
</g>
<g>
</g>
<g>
</g>
<g>
</g>
<g>
</g>
<g>
</g>
<g>
</g>
<g>
</g>
<g>
</g>
<g>
</g>
<g>
</g>
<g>
</g>
<g>
</g>
</svg>
